<?xml version="1.0" encoding="iso-8859-1"?>
<!-- Generator: Adobe Illustrator 19.0.0, SVG Export Plug-In . SVG Version: 6.00 Build 0)  -->
<svg xmlns="http://www.w3.org/2000/svg" xmlns:xlink="http://www.w3.org/1999/xlink" version="1.1" id="Layer_1" x="0px" y="0px" viewBox="0 0 505.728 505.728" style="enable-background:new 0 0 505.728 505.728;" xml:space="preserve" width="512" height="512">
<g>
	<path d="M433.966,35.574h-71.797V15.233C362.169,6.814,355.345,0,346.936,0H161.879c-8.409,0-15.233,6.814-15.233,15.233v20.341   H71.762c-8.409,0-15.233,6.824-15.233,15.233v439.688c0,8.409,6.824,15.233,15.233,15.233h362.204   c8.409,0,15.233-6.824,15.233-15.233V50.807C449.199,42.398,442.374,35.574,433.966,35.574z M177.111,30.466h154.592v40.692   H177.111V30.466z M418.733,475.262H86.994V66.039h59.651V86.39c0,8.418,6.824,15.233,15.233,15.233h185.058   c8.409,0,15.233-6.815,15.233-15.233V66.039h56.564V475.262z"/>
	<path d="M167.677,211.431c16.77,0,16.799-25.388,0-25.388h-43.738c-7.007,0-12.694,5.686-12.694,12.694c0,7.355,0,59.124,0,66.516   c0,16.768,25.388,16.798,25.388,0v-17.142h24.454c16.768,0,16.798-25.388,0-25.388h-24.454v-11.293H167.677z"/>
	<path d="M262.161,265.253v-43.739c0-46.871-70.954-46.886-70.954,0v43.739c0,16.768,25.388,16.798,25.388,0v-10.907h20.168v10.907   C236.763,282.024,262.161,282.05,262.161,265.253z M216.594,228.958v-7.444c0-13.313,20.168-13.343,20.168,0v7.444H216.594z"/>
	<path d="M309.362,265.253v-66.516c0-16.768-25.388-16.798-25.388,0v66.516C283.974,282.025,309.362,282.051,309.362,265.253z"/>
	<path d="M330.596,198.737v66.516c0,7.007,5.687,12.694,12.694,12.694h41.21c16.768,0,16.798-25.388,0-25.388h-28.516v-53.822   C355.984,181.969,330.596,181.939,330.596,198.737z"/>
	<path d="M121.654,140.903c-20.125,0-20.157,30.466,0,30.466h265.131c20.122,0,20.157-30.466,0-30.466H121.654z"/>
	<path d="M386.785,297.211H121.654c-20.125,0-20.157,30.466,0,30.466h265.131C406.907,327.677,406.942,297.211,386.785,297.211z"/>
	<path d="M275.434,351.471l-21.214,21.214l-21.214-21.214c-14.228-14.228-35.794,7.27-21.549,21.539l21.224,21.224l-21.224,21.214   c-14.471,14.496,7.592,35.497,21.549,21.539l21.214-21.214l21.214,21.214c14.15,14.15,35.944-7.12,21.549-21.539l-21.214-21.214   l21.214-21.224C311.198,358.77,289.69,337.215,275.434,351.471z"/>
</g>















</svg>
